<svg xmlns="http://www.w3.org/2000/svg" width="1215px" height="391px" viewBox="0 0 1215 391" xmlns:xlink="http://www.w3.org/1999/xlink" style="overflow: hidden; display: block; width: 1215px; height: 391px;"><rect width="1215px" height="391px" fill="white"/><clipPath id="ygc154_1"><rect height="340.317" width="1164.64" x="25" y="25"/></clipPath><g clip-path="url(#ygc154_1)"><g style="pointer-events:visiblePainted" transform="translate(30 359.6166666666667)" image-rendering="auto" shape-rendering="auto"><g><path fill="none" stroke="rgb(0,0,0)" d="M 23.32531754730548,-139.875 L 35,-139.875 L 37.9619140625,-139.5830078125 L 44.5185546875,-137.2470703125 L 51.3330078125,-132.5751953125 L 57.7021484375,-125.56738281250001 L 63.2978515625,-116.8076171875 L 69.6669921875,-109.7998046875 L 76.4814453125,-105.1279296875 L 83.0380859375,-102.7919921875 L 86,-102.5 L 99.3,-102.5" stroke-opacity="1" stroke-width="0.7" stroke-linecap="butt" stroke-linejoin="miter" stroke-miterlimit="1.45"/><use xlink:href="#ygc154_0" transform="matrix(-0.7 0 0 -0.7 99.50502525316942 -102.5)" style="pointer-events: none;"/></g><g><path fill="none" stroke="rgb(0,0,0)" d="M 23.32531754730548,-152.375 L 35,-152.375 L 37.9541015625,-152.6669921875 L 44.4482421875,-155.0029296875 L 51.1376953125,-159.6748046875 L 57.3193359375,-166.6826171875 L 60,-171.0625 L 62.703125,-175.4423828125 L 69.046875,-182.4501953125 L 76.015625,-187.1220703125 L 82.859375,-189.4580078125 L 86,-189.75 L 100.97468245269451,-189.75" stroke-opacity="1" stroke-width="0.7" stroke-linecap="butt" stroke-linejoin="miter" stroke-miterlimit="1.45"/><use xlink:href="#ygc154_0" transform="matrix(-0.7 0 0 -0.7 101.17970770586393 -189.75)" style="pointer-events: none;"/></g><g><path fill="none" stroke="rgb(0,0,0)" d="M 126,-102.5 L 136,-102.5 L 138.9541015625,-102.84244791666667 L 145.4482421875,-105.58203125 L 152.1376953125,-111.06119791666666 L 158.3193359375,-119.27994791666666 L 161,-124.41666666666667 L 163.703125,-129.55338541666669 L 170.046875,-137.77213541666669 L 177.015625,-143.25130208333337 L 183.859375,-145.99088541666669 L 187,-146.33333333333334 L 200.3,-146.33333333333334" stroke-opacity="1" stroke-width="0.7" stroke-linecap="butt" stroke-linejoin="miter" stroke-miterlimit="1.45"/><use xlink:href="#ygc154_0" transform="matrix(-0.7 0 0 -0.7 200.5050252531694 -146.33333333333334)" style="pointer-events: none;"/></g><g><path fill="none" stroke="rgb(0,0,0)" d="M 113.5,-171 L 113.5,-161 L 113.1640625,-157.17626953125 L 111.400390625,-151.70343017578125 L 109.384765625,-148.40521240234375 L 106.697265625,-145.52740478515625 L 103.337890625,-143.19012451171875 L 99.306640625,-141.51348876953125 L 94.603515625,-140.61761474609375 L 92,-140.5 L 86.9609375,-140.787109375 L 80.662109375,-142.29443359375 L 77.302734375,-144.01708984375 L 74.615234375,-146.31396484375 L 72.599609375,-149.18505859375 L 71.255859375,-152.63037109375 L 70.583984375,-156.64990234375 L 70.5,-158.875 L 70.84814453125,-163.181640625 L 73.36083984375,-170.072265625 L 77.68994140625,-174.666015625 L 83.10888671875,-176.962890625 L 86,-177.25 L 100.97468245269451,-177.25" stroke-opacity="1" stroke-width="0.7" stroke-linecap="butt" stroke-linejoin="miter" stroke-miterlimit="1.45"/><use xlink:href="#ygc154_0" transform="matrix(-0.7 0 0 -0.7 101.17970770586393 -177.25)" style="pointer-events: none;"/></g><g><path fill="none" stroke="rgb(0,0,0)" d="M 126,-183.5 L 136,-183.5 L 138.9619140625,-183.27473958333334 L 145.5185546875,-181.47265625 L 152.3330078125,-177.86848958333337 L 158.7021484375,-172.46223958333337 L 164.2978515625,-165.70442708333331 L 170.6669921875,-160.29817708333331 L 177.4814453125,-156.69401041666669 L 184.0380859375,-154.89192708333334 L 187,-154.66666666666669 L 203.4830500937509,-154.66666666666669" stroke-opacity="1" stroke-width="0.7" stroke-linecap="butt" stroke-linejoin="miter" stroke-miterlimit="1.45"/><use xlink:href="#ygc154_0" transform="matrix(-0.7 0 0 -0.7 203.6880753469203 -154.66666666666669)" style="pointer-events: none;"/></g><g><path fill="none" stroke="rgb(0,0,0)" d="M 214.5,-133.83333333333334 L 214.5,-123.83333333333334 L 214.1640625,-120.00960286458334 L 212.400390625,-114.53676350911459 L 210.384765625,-111.23854573567709 L 207.697265625,-108.36073811848959 L 204.337890625,-106.02345784505209 L 200.306640625,-104.34682210286459 L 195.603515625,-103.45094807942709 L 193,-103.33333333333334 L 187.9609375,-103.60416666666667 L 181.662109375,-105.02604166666669 L 178.302734375,-106.65104166666669 L 175.615234375,-108.81770833333336 L 173.599609375,-111.52604166666669 L 172.255859375,-114.77604166666669 L 171.583984375,-118.56770833333336 L 171.5,-120.66666666666669 L 171.84814453125,-124.72916666666669 L 174.36083984375,-131.22916666666669 L 178.68994140625,-135.56250000000006 L 184.10888671875,-137.72916666666669 L 187,-138.00000000000003 L 203.48305009375088,-138.00000000000003" stroke-opacity="1" stroke-width="0.7" stroke-linecap="butt" stroke-linejoin="miter" stroke-miterlimit="1.45"/><use xlink:href="#ygc154_0" transform="matrix(-0.7 0 0 -0.7 203.68807534692027 -138.00000000000003)" style="pointer-events: none;"/></g><g><path fill="none" stroke="rgb(0,0,0)" d="M 225.9564392373896,-141.33333333333334 L 237,-141.33333333333334 L 238.47183430989583,-141.06705729166669 L 241.7760498046875,-138.93684895833337 L 245.48775227864581,-134.67643229166669 L 249.5190511067708,-128.28580729166669 L 255.97298177083337,-114.70572916666666 L 264.8764973958334,-89.14322916666666 L 269.2583333333333,-73.16666666666667 L 270.65328826904295,-68.97281901041666 L 275.27792714436845,-60.98453776041667 L 282.208592224121,-53.52880859375 L 291.2769485473632,-46.60563151041667 L 302.31466115315754,-40.21500651041667 L 315.15339508056644,-34.35693359375 L 329.6248153686523,-29.031412760416668 L 345.56058705647786,-24.238444010416668 L 371.84167073567704,-18.04752604166667 L 410.4372192382813,-11.656901041666668 L 451.8601440429687,-7.396484375 L 494.7637654622396,-5.266276041666666 L 516.35,-5 L 635.3781990760357,-5 L 645.7917168952919,-5.100911458333333 L 666.528503117035,-5.908203125 L 686.6039160884698,-7.522786458333334 L 705.3687069760576,-9.944661458333336 L 722.1736269462592,-13.173828125 L 736.3694271655361,-17.210286458333336 L 747.3068588003492,-22.054036458333336 L 752.9810643914792,-26.216634114583336 L 755.4074775021193,-29.243977864583336 L 756.1833333333334,-30.833333333333336 L 758.8639973958334,-36.88802083333333 L 765.0456380208334,-46.57552083333333 L 771.7350911458334,-53.03385416666667 L 778.2292317708334,-56.263020833333336 L 781.1833333333334,-56.66666666666667 L 797.6663834270843,-56.66666666666667" stroke-opacity="1" stroke-width="0.7" stroke-linecap="butt" stroke-linejoin="miter" stroke-miterlimit="1.45"/><use xlink:href="#ygc154_0" transform="matrix(-0.7 0 0 -0.7 797.8714086802537 -56.66666666666667)" style="pointer-events: none;"/></g><g><path fill="none" stroke="rgb(0,0,0)" d="M 222,-156.33333333333334 L 237,-156.33333333333334 L 238.47183430989583,-156.67041015625 L 241.7760498046875,-159.36702473958337 L 245.48775227864581,-164.76025390625 L 249.5190511067708,-172.85009765625 L 255.97298177083337,-190.041015625 L 264.8764973958334,-222.400390625 L 269.2583333333333,-242.625 L 269.9216784959041,-245.30054728190103 L 271.9804172560958,-250.52523803710938 L 274.98836495107923,-255.58139038085938 L 278.91329480652354,-260.469004313151 L 286.44953507170624,-267.48441569010413 L 299.4065097598111,-276.24841308593756 L 315.4513311518093,-284.3382568359375 L 334.32618505305584,-291.7539469401042 L 355.77325726890604,-298.4954833984375 L 379.5347336047151,-304.5628662109375 L 405.3527998658382,-309.95609537760413 L 432.9696418576306,-314.6751708984375 L 462.12744538544746,-318.7200927734375 L 492.5683962546441,-322.09086100260413 L 540.0717552727402,-325.8829752604167 L 605.4943171750128,-328.57958984375 L 638.5189804216886,-328.9166666666667 L 831.5824068775111,-328.9166666666667 L 849.8050038163981,-328.7775061228919 L 886.5633903156973,-327.66422177269345 L 922.7966744650391,-325.4376530722966 L 957.3736252500341,-322.09780002170135 L 989.1630116562925,-317.64466262090764 L 1017.0336026694247,-312.0782408699156 L 1034.6843302954412,-307.17283170185385 L 1044.6376756657723,-303.55465756370893 L 1052.9750047422278,-299.65816233801456 L 1059.5549136480088,-295.4833460247705 L 1062.141646825397,-293.2915674603174 L 1071.2666421750992,-284.94193483382935 L 1087.759212859623,-271.5825226314484 L 1101.3226193576388,-262.6762478298611 L 1109.1499366009425,-258.9189131479415 L 1113.0865733506946,-257.80562879774305 L 1114.6374603174604,-257.6664682539682 L 1134.3859238390112,-257.6664682539682" stroke-opacity="1" stroke-width="0.7" stroke-linecap="butt" stroke-linejoin="miter" stroke-miterlimit="1.45"/><use xlink:href="#ygc154_0" transform="matrix(-0.7 0 0 -0.7 1134.5909490921806 -257.6664682539682)" style="pointer-events: none;"/></g><g><path fill="none" stroke="rgb(0,0,0)" d="M 225.9564392373896,-151.33333333333334 L 237,-151.33333333333334 L 238.47183430989583,-151.67041015625 L 241.7760498046875,-154.36702473958337 L 245.48775227864581,-159.76025390625 L 249.5190511067708,-167.85009765625 L 255.97298177083337,-185.041015625 L 264.8764973958334,-217.400390625 L 269.2583333333333,-237.625 L 269.9142762184143,-240.30054728190103 L 271.9144943555196,-245.52523803710938 L 274.80718355178834,-250.58139038085938 L 278.56197729110715,-255.46900431315106 L 285.74418716430665,-262.48441569010413 L 298.0544120788574,-271.24841308593756 L 313.26645787556964,-279.3382568359375 L 331.1373924255371,-286.7539469401042 L 351.42428359985354,-293.4954833984375 L 373.8841992696126,-299.5628662109375 L 398.2742073059082,-304.95609537760413 L 424.351375579834,-309.6751708984375 L 451.8727719624838,-313.7200927734375 L 480.5954643249512,-317.09086100260413 L 525.4005187988282,-320.8829752604167 L 587.0777608235677,-323.57958984375 L 618.2,-323.9166666666667 L 784.0416666666667,-323.9166666666667 L 799.6320912679037,-323.6877848307292 L 830.7051523844402,-321.8567301432292 L 860.8247222900392,-318.1946207682292 L 889.0190724690756,-312.7014567057292 L 908.3168542226156,-307.3799540201823 L 920.0743022918701,-303.2600809733073 L 930.8038481394451,-298.6824442545573 L 940.384025700887,-293.6470438639323 L 948.6933689117432,-288.1538798014323 L 955.6104117075603,-282.2029520670573 L 961.0136880238852,-275.7942606608073 L 964.7817317962647,-268.9278055826823 L 966.0145833333335,-265.3229166666667 L 970.1322591145835,-251.59000651041669 L 978.6131184895834,-229.61735026041669 L 984.8425130208334,-217.94437662760419 L 988.7681477864586,-212.45121256510419 L 992.4094075520836,-208.78910319010419 L 995.6784016927086,-206.95804850260419 L 997.1458333333335,-206.72916666666666 L 1016.8942968548844,-206.72916666666666" stroke-opacity="1" stroke-width="0.7" stroke-linecap="butt" stroke-linejoin="miter" stroke-miterlimit="1.45"/><use xlink:href="#ygc154_0" transform="matrix(-0.7 0 0 -0.7 1017.0993221080538 -206.72916666666666)" style="pointer-events: none;"/></g><g><path fill="none" stroke="rgb(0,0,0)" d="M 222,-136.33333333333334 L 237,-136.33333333333334 L 238.47183430989583,-136.06705729166669 L 241.7760498046875,-133.93684895833337 L 245.48775227864581,-129.67643229166669 L 249.5190511067708,-123.28580729166666 L 255.97298177083337,-109.70572916666666 L 264.8764973958334,-84.14322916666666 L 269.2583333333333,-68.16666666666667 L 270.7076477050781,-63.97281901041666 L 275.75686238606767,-55.98453776041667 L 283.5103576660155,-48.52880859375 L 293.7723327636718,-41.60563151041667 L 306.34698689778645,-35.21500651041667 L 321.0385192871094,-29.356933593750004 L 337.6511291503906,-24.03141276041667 L 355.9890157063802,-19.23844401041667 L 386.3024251302083,-13.047526041666668 L 430.931298828125,-6.656901041666668 L 478.93686523437503,-2.396484375 L 528.7527180989584,-0.2662760416666667 L 553.85,0 L 687.5166666666667,0 L 700.1267171223958,-0.09440104166666667 L 725.5259195963541,-0.8496093750000001 L 750.5112548828125,-2.360026041666667 L 774.2995198567708,-4.625651041666668 L 796.1075113932292,-7.646484375 L 815.1520263671875,-11.422526041666668 L 830.649861653646,-15.953776041666664 L 839.4745839436849,-19.847819010416664 L 843.8414764404298,-22.679850260416664 L 845.5333333333334,-24.166666666666664 L 851.5772786458333,-29.830729166666657 L 863.1401692708333,-38.89322916666666 L 873.4171223958333,-44.93489583333333 L 881.7050130208333,-47.95572916666666 L 884.8833333333334,-48.33333333333333 L 901.3663834270843,-48.33333333333332" stroke-opacity="1" stroke-width="0.7" stroke-linecap="butt" stroke-linejoin="miter" stroke-miterlimit="1.45"/><use xlink:href="#ygc154_0" transform="matrix(-0.7 -3.017523529948131e-16 3.017523529948131e-16 -0.7 901.5714086802537 -48.33333333333332)" style="pointer-events: none;"/></g><g><path fill="none" stroke="rgb(0,0,0)" d="M 227,-146.33333333333334 L 284.81666666666666,-146.33333333333334" stroke-opacity="1" stroke-width="0.7" stroke-linecap="butt" stroke-linejoin="miter" stroke-miterlimit="1.45"/><use xlink:href="#ygc154_0" transform="matrix(-0.7 0 0 -0.7 285.0216919198361 -146.33333333333334)" style="pointer-events: none;"/></g><g><path fill="none" stroke="rgb(0,0,0)" d="M 309.8419842139721,-152.58333333333334 L 321.51666666666665,-152.58333333333334 L 322.96014811197915,-152.7568359375 L 326.03754069010415,-154.14485677083334 L 329.29559733072915,-156.9208984375 L 332.64642740885415,-161.0849609375 L 337.65436197916665,-169.93359375 L 343.83600260416665,-186.58984375 L 349.19733072916665,-207.41015625 L 355.37897135416665,-224.06640625 L 360.38690592447915,-232.9150390625 L 363.73773600260415,-237.0791015625 L 366.99579264322915,-239.85514322916666 L 370.07318522135415,-241.2431640625 L 371.51666666666665,-241.41666666666666 L 384.81666666666666,-241.41666666666666" stroke-opacity="1" stroke-width="0.7" stroke-linecap="butt" stroke-linejoin="miter" stroke-miterlimit="1.45"/><use xlink:href="#ygc154_0" transform="matrix(-0.7 0 0 -0.7 385.0216919198361 -241.41666666666666)" style="pointer-events: none;"/></g><g><path fill="none" stroke="rgb(0,0,0)" d="M 309.8419842139721,-140.08333333333334 L 321.51666666666665,-140.08333333333334 L 323.04315592447915,-139.87809244791669 L 326.78461100260415,-138.23616536458331 L 333.95319010416665,-132.69466145833331 L 345.95514322916665,-119.55924479166669 L 360.10553385416665,-99.85611979166667 L 367.76666666666665,-87.54166666666667 L 369.940897878011,-84.30912272135417 L 375.5683214823405,-78.15189615885417 L 382.79507980346676,-72.40515136718751 L 391.49403661092117,-67.06888834635417 L 401.538055674235,-62.14310709635417 L 412.8000007629394,-57.62780761718749 L 431.6984191894531,-51.62451171874999 L 459.9724466959635,-45.05680338541667 L 490.8297261555989,-40.13102213541667 L 523.2531677246094,-36.84716796875 L 556.2256815592448,-35.205240885416664 L 572.6,-35 L 588.8913106282553,-35.139973958333336 L 621.1997619628906,-36.259765625 L 652.295078531901,-38.49934895833334 L 681.1601704915365,-41.85872395833334 L 706.7779479980469,-46.337890625 L 728.1313212076823,-51.93684895833334 L 740.7359926859538,-56.870930989583336 L 747.2767463684082,-60.51025390625001 L 752.1792859395346,-64.42952473958331 L 755.3164751688639,-68.62874348958334 L 756.1833333333334,-70.83333333333334 L 759.7833333333334,-83.73333333333333 L 761.5095052083335,-89.10833333333335 L 765.7399739583334,-97.70833333333334 L 769.6213704427086,-102.27708333333334 L 772.5595540364584,-104.42708333333334 L 775.7864095052084,-105.86041666666668 L 779.3089680989584,-106.57708333333333 L 781.1833333333334,-106.66666666666667 L 797.6663834270843,-106.66666666666667" stroke-opacity="1" stroke-width="0.7" stroke-linecap="butt" stroke-linejoin="miter" stroke-miterlimit="1.45"/><use xlink:href="#ygc154_0" transform="matrix(-0.7 0 0 -0.7 797.8714086802537 -106.66666666666667)" style="pointer-events: none;"/></g><g><path fill="none" stroke="rgb(0,0,0)" d="M 405.92630164657373,-231 L 421.51666666666665,-231 L 422.97162272135415,-230.747314453125 L 426.14081217447915,-228.725830078125 L 429.58246256510415,-224.682861328125 L 433.20868326822915,-218.618408203125 L 438.80182291666665,-205.7314453125 L 446.08502604166665,-181.4736328125 L 449.45416666666665,-166.3125 L 450.4208751678467,-162.33270263671875 L 453.270628229777,-154.75213623046875 L 457.2702683766683,-147.67694091796875 L 462.33352241516116,-141.10711669921875 L 468.37411715189614,-135.04266357421875 L 475.305779393514,-129.48358154296875 L 483.0422359466553,-124.42987060546875 L 491.4972136179606,-119.88153076171875 L 505.33818461100265,-114.006591796875 L 525.5024200439453,-107.942138671875 L 546.9878224690756,-103.899169921875 L 569.1042063395182,-101.877685546875 L 580.1833333333334,-101.625 L 595.1580157860278,-101.625" stroke-opacity="1" stroke-width="0.7" stroke-linecap="butt" stroke-linejoin="miter" stroke-miterlimit="1.45"/><use xlink:href="#ygc154_0" transform="matrix(-0.7 0 0 -0.7 595.3630410391972 -101.625)" style="pointer-events: none;"/></g><g><path fill="none" stroke="rgb(0,0,0)" d="M 411.51666666666665,-239.33333333333331 L 493.3663491193612,-239.33333333333334" stroke-opacity="1" stroke-width="0.7" stroke-linecap="butt" stroke-linejoin="miter" stroke-miterlimit="1.45"/><use xlink:href="#ygc154_0" transform="matrix(-0.7 2.4306993020750373e-16 -2.4306993020750373e-16 -0.7 493.5713743725306 -239.33333333333334)" style="pointer-events: none;"/></g><g><path fill="none" stroke="rgb(0,0,0)" d="M 409.8419842139721,-235.16666666666666 L 421.51666666666665,-235.16666666666666 L 422.97162272135415,-234.99951171875 L 426.14081217447915,-233.66227213541663 L 429.58246256510415,-230.98779296875 L 433.20868326822915,-226.97607421875 L 438.80182291666665,-218.451171875 L 446.08502604166665,-202.404296875 L 449.45416666666665,-192.375 L 451.22158203124997,-187.19718424479169 L 455.65777994791665,-177.86840820312503 L 461.2958007812499,-169.90877278645837 L 468.1356445312499,-163.31827799479174 L 476.17731119791654,-158.09692382812506 L 485.4208007812499,-154.24471028645843 L 495.8661132812499,-151.76163736979174 L 507.51324869791654,-150.64770507812503 L 513.7874999999999,-150.60416666666669 L 557.021875,-151.36979166666666 L 580.1833333333334,-151.625 L 595.1580157860278,-151.625" stroke-opacity="1" stroke-width="0.7" stroke-linecap="butt" stroke-linejoin="miter" stroke-miterlimit="1.45"/><use xlink:href="#ygc154_0" transform="matrix(-0.7 0 0 -0.7 595.3630410391972 -151.625)" style="pointer-events: none;"/></g><g><path fill="none" stroke="rgb(0,0,0)" d="M 405.92630164657373,-251.83333333333331 L 421.51666666666665,-251.83333333333331 L 424.75885416666665,-252.16210937499997 L 433.55768229166665,-254.79231770833334 L 444.85651041666665,-260.052734375 L 457.95221354166665,-267.943359375 L 464.95416666666665,-272.875 L 469.2096158304812,-275.4230143229167 L 481.6141645310528,-280.02587890625 L 498.51931459567004,-283.97119140625 L 519.0959470644798,-287.2589518229167 L 542.5149429776286,-289.88916015625 L 567.9471833752639,-291.86181640625 L 608.0566796554492,-293.587890625 L 634.8946358149421,-293.9166666666667 L 855.2451206103251,-293.9166666666667 L 887.4281959481841,-293.6090479290675 L 951.3392499343377,-291.1480980282738 L 994.9660380099576,-287.68738723028275 L 1020.1387561438846,-284.6111998542907 L 1041.0240157933263,-280.9197750031002 L 1056.6292346571709,-276.61311267671135 L 1062.141646825397,-274.2290674603175 L 1071.2666421750992,-269.61478639632935 L 1087.759212859623,-262.2319366939484 L 1101.3226193576388,-257.3100368923611 L 1111.253736669147,-254.84908699156745 L 1114.6374603174604,-254.54146825396825 L 1130.6796509449628,-254.54146825396822" stroke-opacity="1" stroke-width="0.7" stroke-linecap="butt" stroke-linejoin="miter" stroke-miterlimit="1.45"/><use xlink:href="#ygc154_0" transform="matrix(-0.7 -1.240179540515804e-15 1.240179540515804e-15 -0.7 1130.8846761981322 -254.54146825396822)" style="pointer-events: none;"/></g><g><path fill="none" stroke="rgb(0,0,0)" d="M 409.8419842139721,-247.66666666666666 L 421.51666666666665,-247.66666666666666 L 424.75885416666665,-247.99544270833331 L 433.55768229166665,-250.62565104166666 L 444.85651041666665,-255.88606770833331 L 457.95221354166665,-263.77669270833337 L 464.95416666666665,-268.7083333333333 L 469.2096158304812,-271.25634765625 L 481.6141645310528,-275.8592122395833 L 498.51931459567004,-279.8045247395833 L 519.0959470644798,-283.09228515624994 L 542.5149429776286,-285.72249348958337 L 567.9471833752639,-287.69514973958337 L 608.0566796554492,-289.4212239583333 L 634.8946358149421,-289.75 L 792.3889845741378,-289.75 L 807.1978670812548,-289.5817464192708 L 836.7322990424835,-288.2357177734375 L 865.3866048915709,-285.54366048177087 L 892.2379661787559,-281.50557454427087 L 916.3635644542777,-276.12145996093744 L 936.8405812683756,-269.3913167317708 L 949.248829321205,-263.4603780110677 L 955.9001783738123,-259.0857849121094 L 961.1202966830733,-254.3746846516927 L 964.7938319427676,-249.3270772298177 L 966.0145833333335,-246.67708333333331 L 970.1322591145835,-236.58186848958331 L 978.6131184895834,-220.42952473958331 L 984.8425130208334,-211.84859212239581 L 988.7681477864586,-207.81050618489581 L 992.4094075520836,-205.11844889322919 L 995.6784016927086,-203.77242024739581 L 997.1458333333335,-203.60416666666666 L 1013.188023960836,-203.60416666666666" stroke-opacity="1" stroke-width="0.7" stroke-linecap="butt" stroke-linejoin="miter" stroke-miterlimit="1.45"/><use xlink:href="#ygc154_0" transform="matrix(-0.7 0 0 -0.7 1013.3930492140054 -203.60416666666666)" style="pointer-events: none;"/></g><g><path fill="none" stroke="rgb(0,0,0)" d="M 411.51666666666665,-243.5 L 421.51666666666665,-243.5 L 424.75885416666665,-243.82877604166666 L 433.55768229166665,-246.458984375 L 444.85651041666665,-251.71940104166663 L 457.95221354166665,-259.61002604166663 L 464.95416666666665,-264.54166666666663 L 469.2096158304812,-267.0896809895833 L 481.6141645310528,-271.69254557291663 L 498.51931459567004,-275.63785807291663 L 519.0959470644798,-278.9256184895833 L 542.5149429776286,-281.55582682291663 L 567.9471833752639,-283.52848307291663 L 608.0566796554492,-285.25455729166663 L 634.8946358149419,-285.5833333333333 L 740.5389845741377,-285.5833333333333 L 750.4745821691454,-285.44864908854163 L 770.3022880561552,-284.37117513020826 L 789.5561666591489,-282.21622721354163 L 807.6172081221152,-278.98380533854163 L 823.8664025890432,-274.67390950520826 L 837.6847402039223,-269.28653971354163 L 846.0808704894177,-264.5389200846354 L 850.5962469468103,-261.03712972005206 L 854.1557161471845,-257.2659708658854 L 856.681901858539,-253.22544352213538 L 857.5333333333334,-251.10416666666666 L 860.5528645833335,-243.02311197916663 L 867.4028645833334,-230.09342447916663 L 872.8807942708336,-223.22452799479169 L 876.5190755208336,-219.99210611979169 L 880.0370442708336,-217.837158203125 L 883.3409505208335,-216.75968424479166 L 884.8833333333334,-216.625 L 902.4153604862565,-216.625" stroke-opacity="1" stroke-width="0.7" stroke-linecap="butt" stroke-linejoin="miter" stroke-miterlimit="1.45"/><use xlink:href="#ygc154_0" transform="matrix(-0.7 0 0 -0.7 902.620385739426 -216.625)" style="pointer-events: none;"/></g><g><path fill="none" stroke="rgb(0,0,0)" d="M 513.3916666666667,-223.08333333333334 L 528.3916666666667,-223.08333333333334 L 529.8386474609374,-222.87052408854169 L 532.9440348307292,-221.16805013020837 L 536.2580810546874,-217.76310221354169 L 539.6928955078124,-212.65568033854169 L 544.8792968749999,-201.80240885416669 L 551.3968749999999,-181.37272135416669 L 554.2874999999999,-168.60416666666669 L 556.4666666666667,-157.70833333333334 L 558.7850260416667,-147.49348958333334 L 564.1514322916668,-131.14973958333331 L 568.6762858072918,-122.46712239583334 L 571.8650553385419,-118.38118489583334 L 575.1505696614586,-115.6572265625 L 578.4976725260418,-114.29524739583333 L 580.1833333333334,-114.125 L 595.1580157860278,-114.125" stroke-opacity="1" stroke-width="0.7" stroke-linecap="butt" stroke-linejoin="miter" stroke-miterlimit="1.45"/><use xlink:href="#ygc154_0" transform="matrix(-0.7 0 0 -0.7 595.3630410391972 -114.125)" style="pointer-events: none;"/></g><g><path fill="none" stroke="rgb(0,0,0)" d="M 517.3481059040563,-228.08333333333334 L 528.3916666666667,-228.08333333333334 L 529.8386474609374,-227.95841471354169 L 532.9440348307292,-226.95906575520837 L 537.9658854166667,-223.58626302083331 L 544.8792968749999,-215.59147135416663 L 551.3968749999999,-203.59928385416666 L 554.2874999999999,-196.10416666666669 L 557.1781249999999,-188.60904947916669 L 563.6957031249999,-176.61686197916669 L 570.6091145833334,-168.6220703125 L 575.6309651692709,-165.249267578125 L 578.7363525390626,-164.24991861979166 L 580.1833333333334,-164.125 L 595.1580157860278,-164.125" stroke-opacity="1" stroke-width="0.7" stroke-linecap="butt" stroke-linejoin="miter" stroke-miterlimit="1.45"/><use xlink:href="#ygc154_0" transform="matrix(-0.7 0 0 -0.7 595.3630410391972 -164.125)" style="pointer-events: none;"/></g><g><path fill="none" stroke="rgb(0,0,0)" d="M 619.7864062902315,-154.75 L 630.1833333333334,-154.75 L 634.1120052083334,-154.416 L 639.1075032552084,-152.6625 L 641.8989680989584,-150.65849999999998 L 645.3798177083335,-146.39999999999998 L 648.9165364583334,-138.384 L 650.3033333333334,-133.374 L 655.1833333333334,-113 L 656.5524739583334,-107.9443359375 L 660.0055989583334,-98.8115234375 L 664.4118489583334,-90.9833984375 L 669.7712239583334,-84.4599609375 L 676.0837239583334,-79.2412109375 L 683.3493489583334,-75.3271484375 L 691.5680989583334,-72.7177734375 L 700.7399739583334,-71.4130859375 L 705.6833333333334,-71.25 L 710.6266927083334,-71.33544921875 L 719.7985677083334,-72.01904296875 L 728.0173177083334,-73.38623046875 L 735.2829427083334,-75.43701171875 L 741.5954427083334,-78.17138671875 L 746.9548177083334,-81.58935546875 L 751.3610677083334,-85.69091796875 L 754.8141927083334,-90.47607421875 L 756.1833333333334,-93.125 L 758.8639973958334,-98.251953125 L 765.0456380208334,-106.455078125 L 771.7350911458334,-111.923828125 L 778.2292317708334,-114.658203125 L 781.1833333333334,-115 L 794.4833333333333,-115" stroke-opacity="1" stroke-width="0.7" stroke-linecap="butt" stroke-linejoin="miter" stroke-miterlimit="1.45"/><use xlink:href="#ygc154_0" transform="matrix(-0.7 0 0 -0.7 794.6883585865028 -115)" style="pointer-events: none;"/></g><g><path fill="none" stroke="rgb(0,0,0)" d="M 615.9513061804103,-148.5 L 642.7257333333334,-148.5 L 643.3529333333333,-148.28624 L 644.6841333333334,-146.57616000000002 L 646.8729333333333,-140.80464 L 648.4601333333334,-134.81936 L 658.7833333333333,-91.72 L 659.2859749348956,-90.07609375 L 660.9096565755208,-86.94484375 L 664.9039192708333,-82.639375 L 673.1749348958333,-77.629375 L 684.8618880208332,-73.454375 L 700.0191536458335,-70.114375 L 718.7011067708335,-67.609375 L 740.9621223958334,-65.93937500000001 L 766.8565755208333,-65.104375 L 781.1833333333334,-65 L 794.4833333333333,-65" stroke-opacity="1" stroke-width="0.7" stroke-linecap="butt" stroke-linejoin="miter" stroke-miterlimit="1.45"/><use xlink:href="#ygc154_0" transform="matrix(-0.7 0 0 -0.7 794.6883585865028 -65)" style="pointer-events: none;"/></g><g><path fill="none" stroke="rgb(0,0,0)" d="M 615.9513061804103,-167.25 L 630.1833333333334,-167.25 L 633.3796223958334,-167.5625 L 641.8112630208334,-170.0625 L 652.3757161458334,-175.0625 L 664.3698567708334,-182.5625 L 670.6833333333334,-187.25 L 673.9079427083334,-189.61002604166666 L 680.5798177083334,-193.490234375 L 687.5485677083334,-196.25065104166669 L 694.8141927083334,-197.89127604166669 L 702.3766927083334,-198.41210937500003 L 710.2360677083334,-197.81315104166669 L 718.3923177083334,-196.09440104166669 L 726.8454427083334,-193.25585937500003 L 731.1833333333334,-191.41666666666669 L 739.7233723958334,-187.70572916666669 L 755.2800130208334,-181.76822916666669 L 768.2194661458334,-177.80989583333331 L 777.8386067708334,-175.83072916666669 L 781.1833333333334,-175.58333333333334 L 796.1580157860278,-175.58333333333334" stroke-opacity="1" stroke-width="0.7" stroke-linecap="butt" stroke-linejoin="miter" stroke-miterlimit="1.45"/><use xlink:href="#ygc154_0" transform="matrix(-0.7 0 0 -0.7 796.3630410391972 -175.58333333333334)" style="pointer-events: none;"/></g><g><path fill="none" stroke="rgb(0,0,0)" d="M 619.7864062902315,-161 L 696.1580157860278,-161" stroke-opacity="1" stroke-width="0.7" stroke-linecap="butt" stroke-linejoin="miter" stroke-miterlimit="1.45"/><use xlink:href="#ygc154_0" transform="matrix(-0.7 0 0 -0.7 696.3630410391972 -161)" style="pointer-events: none;"/></g><g><path fill="none" stroke="rgb(0,0,0)" d="M 721.1833333333334,-154.75 L 731.1833333333334,-154.75 L 734.1374348958334,-154.50455729166666 L 740.6315755208334,-152.541015625 L 747.3210286458334,-148.61393229166669 L 753.5026692708334,-142.72330729166669 L 756.1833333333334,-139.04166666666666 L 758.8639973958334,-135.36002604166666 L 765.0456380208334,-129.46940104166669 L 771.7350911458334,-125.54231770833334 L 778.2292317708334,-123.57877604166666 L 781.1833333333334,-123.33333333333333 L 797.6663834270843,-123.33333333333333" stroke-opacity="1" stroke-width="0.7" stroke-linecap="butt" stroke-linejoin="miter" stroke-miterlimit="1.45"/><use xlink:href="#ygc154_0" transform="matrix(-0.7 0 0 -0.7 797.8714086802537 -123.33333333333333)" style="pointer-events: none;"/></g><g><path fill="none" stroke="rgb(0,0,0)" d="M 505.89166666666665,-220.58333333333334 L 505.89166666666665,-210.58333333333334 L 505.55572916666665,-206.75960286458334 L 503.79205729166665,-201.2867635091146 L 501.77643229166665,-197.9885457356771 L 499.08893229166665,-195.1107381184896 L 495.72955729166665,-192.7734578450521 L 491.69830729166665,-191.0968221028646 L 486.99518229166665,-190.2009480794271 L 484.39166666666665,-190.08333333333334 L 479.35260416666665,-190.37044270833334 L 473.05377604166665,-191.87776692708334 L 469.69440104166665,-193.60042317708334 L 467.00690104166665,-195.89729817708334 L 464.99127604166665,-198.76839192708334 L 463.64752604166665,-202.21370442708334 L 462.97565104166665,-206.23323567708334 L 462.89166666666665,-208.45833333333334 L 463.23981119791665,-212.76497395833334 L 465.75250651041665,-219.65559895833334 L 470.08160807291665,-224.24934895833334 L 475.50055338541665,-226.54622395833334 L 478.39166666666665,-226.83333333333334 L 493.3663491193612,-226.83333333333334" stroke-opacity="1" stroke-width="0.7" stroke-linecap="butt" stroke-linejoin="miter" stroke-miterlimit="1.45"/><use xlink:href="#ygc154_0" transform="matrix(-0.7 0 0 -0.7 493.5713743725306 -226.83333333333334)" style="pointer-events: none;"/></g><g><path fill="none" stroke="rgb(0,0,0)" d="M 513.3916666666667,-243.08333333333334 L 528.3916666666667,-243.08333333333334 L 546.7406249999999,-243.60416666666669 L 575.5375,-245.16666666666669 L 599.8493489583334,-246.078125 L 681.1371093750001,-247.11979166666669 L 726.9333333333334,-247.25 L 778.6408841765873,-247.38020213293652 L 907.219259672619,-248.42181919642854 L 972.9103968253969,-249.3332341269841 L 1072.6431944444444,-250.8956597222222 L 1114.6374603174604,-251.41646825396825 L 1128.8496501813734,-251.41646825396822" stroke-opacity="1" stroke-width="0.7" stroke-linecap="butt" stroke-linejoin="miter" stroke-miterlimit="1.45"/><use xlink:href="#ygc154_0" transform="matrix(-0.7 -1.3998684785234909e-15 1.3998684785234909e-15 -0.7 1129.0546754345428 -251.41646825396822)" style="pointer-events: none;"/></g><g><path fill="none" stroke="rgb(0,0,0)" d="M 518.3916666666667,-233.08333333333334 L 528.3916666666667,-233.08333333333334 L 546.7406249999999,-233.60416666666669 L 575.5375,-235.16666666666669 L 599.8493489583334,-236.078125 L 681.1371093750001,-237.11979166666669 L 726.9333333333334,-237.25 L 740.0991121419272,-237.07265625000002 L 764.8267830403646,-235.65390625000003 L 787.1830281575521,-232.81640625000003 L 806.8883553059895,-228.56015624999998 L 823.6632722981772,-222.88515625 L 834.1532463582357,-217.69785156249998 L 840.0852403767904,-213.79628906249997 L 845.127417500814,-209.54003906249997 L 849.2448412068686,-204.92910156249997 L 852.402574971517,-199.9634765625 L 854.5656822713216,-194.6431640625 L 855.2633333333334,-191.85 L 857.5333333333334,-180.5 L 859.0757161458334,-173.6279296875 L 862.9022786458335,-161.2138671875 L 867.7179036458334,-150.5732421875 L 873.5225911458335,-141.7060546875 L 880.3163411458333,-134.6123046875 L 888.0991536458333,-129.2919921875 L 896.8710286458332,-125.74511718749999 L 906.6319661458333,-123.97167968749999 L 911.8833333333334,-123.75 L 917.1416585286461,-123.89375813802083 L 926.9582600911461,-125.0438232421875 L 935.841463216146,-127.34395345052081 L 943.791267903646,-130.79414876302081 L 950.8076741536458,-135.3944091796875 L 956.890681966146,-141.14473470052081 L 962.0402913411459,-148.04512532552081 L 966.2565022786459,-156.0955810546875 L 968.0145833333335,-160.55208333333331 L 971.4515950520836,-169.17757161458331 L 978.9695638020835,-182.97835286458331 L 984.8023518880211,-190.31001790364581 L 988.6076253255211,-193.76021321614581 L 992.2369222005211,-196.06034342447919 L 995.5964925130211,-197.21040852864581 L 997.1458333333335,-197.35416666666666 L 1010.4458333333334,-197.35416666666666" stroke-opacity="1" stroke-width="0.7" stroke-linecap="butt" stroke-linejoin="miter" stroke-miterlimit="1.45"/><use xlink:href="#ygc154_0" transform="matrix(-0.7 0 0 -0.7 1010.6508585865029 -197.35416666666666)" style="pointer-events: none;"/></g><g><path fill="none" stroke="rgb(0,0,0)" d="M 517.3481059040563,-238.08333333333334 L 528.3916666666667,-238.08333333333334 L 546.7406249999999,-238.60416666666669 L 575.5375,-240.16666666666669 L 599.8493489583334,-241.078125 L 681.1371093750001,-242.11979166666669 L 726.9333333333334,-242.25 L 749.3535970052084,-242.0009765625 L 792.4632649739583,-240.0087890625 L 820.5297627766927,-237.207275390625 L 835.8993306477864,-234.717041015625 L 847.7805684407551,-231.728759765625 L 853.9819501241049,-229.16070556640625 L 856.6621793111166,-227.29302978515625 L 857.5333333333334,-226.3125 L 860.5528645833335,-222.5771484375 L 867.4028645833334,-216.6005859375 L 874.7091145833335,-212.6162109375 L 881.7216145833335,-210.6240234375 L 884.8833333333334,-210.375 L 898.5802603764353,-210.375" stroke-opacity="1" stroke-width="0.7" stroke-linecap="butt" stroke-linejoin="miter" stroke-miterlimit="1.45"/><use xlink:href="#ygc154_0" transform="matrix(-0.7 0 0 -0.7 898.7852856296047 -210.375)" style="pointer-events: none;"/></g><g><path fill="none" stroke="rgb(0,0,0)" d="M 899.8833333333334,-56.66666666666666 L 819.7002832395825,-56.66666666666667" stroke-opacity="1" stroke-width="0.7" stroke-linecap="butt" stroke-linejoin="miter" stroke-miterlimit="1.45"/><use xlink:href="#ygc154_0" transform="matrix(0.7 1.2406111128237898e-16 -1.2406111128237898e-16 0.7 819.4952579864131 -56.66666666666667)" style="pointer-events: none;"/></g><g><path fill="none" stroke="rgb(0,0,0)" d="M 718.0002832395825,-146.41666666666666 L 731.1833333333334,-146.41666666666666 L 732.6268147786459,-146.27392578125 L 735.7042073567709,-145.13199869791666 L 738.9622639973959,-142.84814453125 L 742.3130940755209,-139.42236328125 L 747.3210286458334,-132.142578125 L 753.5026692708334,-118.43945312499999 L 756.1833333333334,-109.875 L 759.7833333333334,-96.72 L 761.5095052083335,-91.23875 L 765.7399739583334,-82.46875 L 769.6213704427086,-77.80968750000001 L 772.5595540364584,-75.6171875 L 775.7864095052084,-74.15552083333333 L 779.3089680989584,-73.42468749999999 L 781.1833333333334,-73.33333333333333 L 797.6663834270843,-73.33333333333333" stroke-opacity="1" stroke-width="0.7" stroke-linecap="butt" stroke-linejoin="miter" stroke-miterlimit="1.45"/><use xlink:href="#ygc154_0" transform="matrix(-0.7 0 0 -0.7 797.8714086802537 -73.33333333333333)" style="pointer-events: none;"/></g><g><path fill="none" stroke="rgb(0,0,0)" d="M 818.0002832395825,-73.33333333333333 L 831.1833333333334,-73.33333333333333 L 834.4007161458334,-73.61328125 L 843.0011067708333,-75.85286458333334 L 853.9030598958334,-80.33203125 L 866.4034505208333,-87.05078125 L 873.0333333333334,-91.25 L 876.601619466146,-93.41959635416667 L 885.0104085286458,-97.3388671875 L 895.1154866536459,-100.6982421875 L 906.9168538411459,-103.49772135416667 L 927.7994466145835,-106.64713541666666 L 961.5799153645835,-108.88671874999999 L 981.0145833333335,-109.16666666666667 L 990.9122964719743,-109.42008424789185 L 1009.2455640811012,-111.44742489769344 L 1025.6292867993552,-115.50210619729661 L 1040.0634646267363,-121.58412814670137 L 1052.548097563244,-129.69349074590772 L 1063.083185608879,-139.83019399491567 L 1071.668728763641,-151.9942378937252 L 1078.3047270275297,-166.1856224423363 L 1080.891646825397,-174.04156746031745 L 1085.6221109250992,-189.24662233382935 L 1095.083431609623,-213.5747101314484 L 1101.8336962115575,-226.49900677393353 L 1106.0044463045633,-232.58102872333828 L 1109.8091162884425,-236.63571002294145 L 1113.1598155381946,-238.66305067274305 L 1114.6374603174604,-238.91646825396825 L 1130.6796509449628,-238.91646825396822" stroke-opacity="1" stroke-width="0.7" stroke-linecap="butt" stroke-linejoin="miter" stroke-miterlimit="1.45"/><use xlink:href="#ygc154_0" transform="matrix(-0.7 -1.240179540515804e-15 1.240179540515804e-15 -0.7 1130.8846761981322 -238.91646825396822)" style="pointer-events: none;"/></g><g><path fill="none" stroke="rgb(0,0,0)" d="M 821.1833333333334,-65 L 901.3663834270843,-65" stroke-opacity="1" stroke-width="0.7" stroke-linecap="butt" stroke-linejoin="miter" stroke-miterlimit="1.45"/><use xlink:href="#ygc154_0" transform="matrix(-0.7 0 0 -0.7 901.5714086802537 -65)" style="pointer-events: none;"/></g><g><path fill="none" stroke="rgb(0,0,0)" d="M 818.0002832395825,-161 L 831.1833333333334,-161 L 834.1585286458334,-160.61946614583334 L 840.8214192708333,-157.5751953125 L 847.8483723958334,-151.48665364583337 L 854.5362630208333,-142.35384114583337 L 857.5333333333334,-136.64583333333334 L 859.2852132161458,-133.69669596354169 L 864.7877522786459,-128.36922200520834 L 872.9553304036459,-123.80281575520833 L 883.7879475911459,-119.99747721354169 L 897.2856038411458,-116.95320638020834 L 913.4482991536458,-114.67000325520834 L 932.2760335286459,-113.14786783854166 L 953.768806966146,-112.38680013020834 L 965.5145833333335,-112.29166666666667 L 977.2892495969743,-112.54508424789188 L 999.0131422061013,-114.57242489769345 L 1018.3031149243552,-118.62710619729661 L 1035.1591677517363,-124.70912814670137 L 1046.2039474438866,-130.60108691018726 L 1052.806533939422,-135.16260337224082 L 1058.8006404622397,-140.2309549967448 L 1064.186267012339,-145.80614178369916 L 1068.9634135897197,-151.8881637331039 L 1073.1320801943825,-158.4770208449591 L 1076.6922668263269,-165.57271311926465 L 1079.643973485553,-173.17524055602058 L 1080.891646825397,-177.16656746031745 L 1085.6221109250992,-192.37162233382935 L 1095.083431609623,-216.6997101314484 L 1101.8336962115575,-229.6240067739335 L 1106.0044463045633,-235.70602872333828 L 1109.8091162884425,-239.76071002294145 L 1113.1598155381946,-241.78805067274305 L 1114.6374603174604,-242.04146825396825 L 1128.8496501813734,-242.04146825396822" stroke-opacity="1" stroke-width="0.7" stroke-linecap="butt" stroke-linejoin="miter" stroke-miterlimit="1.45"/><use xlink:href="#ygc154_0" transform="matrix(-0.7 -1.3998684785234909e-15 1.3998684785234909e-15 -0.7 1129.0546754345428 -242.04146825396822)" style="pointer-events: none;"/></g><g><path fill="none" stroke="rgb(0,0,0)" d="M 923.208650880639,-213.5 L 934.8833333333334,-213.5 L 937.9332356770834,-213.77180989583334 L 945.1937825520833,-215.9462890625 L 953.4160481770834,-220.29524739583331 L 961.8969075520833,-226.81868489583331 L 966.0145833333335,-230.89583333333331 L 967.1990911544317,-231.96608453981173 L 970.589545061021,-234.00465674059268 L 978.0468720209038,-236.80768975609135 L 991.9075885833274,-240.0693939288485 L 1009.5339532809824,-242.78747256607014 L 1041.335894678516,-245.8452949272668 L 1089.6726158311744,-248.0197117816595 L 1114.637460317474,-248.29148843267626 L 1127.937460317462,-248.29147054088847" stroke-opacity="1" stroke-width="0.7" stroke-linecap="butt" stroke-linejoin="miter" stroke-miterlimit="1.45"/><use xlink:href="#ygc154_0" transform="matrix(-0.6999999999993666 -9.416730416720235e-7 9.416730416720235e-7 -0.6999999999993666 1128.1424855706312 -248.2914702650788)" style="pointer-events: none;"/></g><g><path fill="none" stroke="rgb(0,0,0)" d="M 1037.1458333333335,-195.79166666666666 L 1047.1458333333335,-195.79166666666666 L 1050.236588231647,-196.17740730406746 L 1057.8239555431546,-199.2633324032738 L 1066.6998620411705,-205.4351826016865 L 1076.1611827256943,-214.69295789930555 L 1080.891646825397,-220.47906746031745 L 1085.6221109250992,-226.26517702132935 L 1095.083431609623,-235.5229523189484 L 1103.9593381076388,-241.6948025173611 L 1111.546705419147,-244.78072761656745 L 1114.6374603174604,-245.16646825396825 L 1127.9374603174604,-245.16646825396822" stroke-opacity="1" stroke-width="0.7" stroke-linecap="butt" stroke-linejoin="miter" stroke-miterlimit="1.45"/><use xlink:href="#ygc154_0" transform="matrix(-0.7 -1.4958794437054791e-15 1.4958794437054791e-15 -0.7 1128.1424855706298 -245.16646825396822)" style="pointer-events: none;"/></g><g><path fill="none" stroke="rgb(0,0,0)" d="M 921.7002832395825,-48.33333333333332 L 934.8833333333334,-48.33333333333333 L 946.8718835691423,-48.69946250310019 L 970.9154996890115,-51.62849586123511 L 988.6393992305938,-55.74744902111235 L 1000.1335102160017,-59.40874071878099 L 1011.2614187555464,-63.802290755983385 L 1021.9299150103616,-68.9280991327195 L 1032.0457891415795,-74.78616584898934 L 1041.515831310333,-81.37649090479292 L 1050.2468316777547,-88.6990743001302 L 1058.145580404978,-96.75391603500125 L 1065.118867653135,-105.541016109406 L 1071.0734835833596,-115.06037452334449 L 1075.9162183567835,-125.31199127681673 L 1079.55386213454,-136.29586636982268 L 1080.891646825397,-142.0624007936508 L 1085.6221109250992,-164.03015097966272 L 1095.083431609623,-199.17855127728174 L 1101.8336962115575,-217.85113893539187 L 1106.0044463045633,-226.63823900979662 L 1109.8091162884425,-232.49630572606648 L 1113.1598155381946,-235.42533908420137 L 1114.6374603174604,-235.79146825396825 L 1134.3859238390112,-235.79146825396822" stroke-opacity="1" stroke-width="0.7" stroke-linecap="butt" stroke-linejoin="miter" stroke-miterlimit="1.45"/><use xlink:href="#ygc154_0" transform="matrix(-0.7 -1.0074301010593511e-15 1.0074301010593511e-15 -0.7 1134.5909490921806 -235.79146825396822)" style="pointer-events: none;"/></g><g><path fill="none" stroke="rgb(0,0,0)" d="M 718.0002832395825,-163.08333333333334 L 796.1580157860278,-163.08333333333334" stroke-opacity="1" stroke-width="0.7" stroke-linecap="butt" stroke-linejoin="miter" stroke-miterlimit="1.45"/><use xlink:href="#ygc154_0" transform="matrix(-0.7 0 0 -0.7 796.3630410391972 -163.08333333333334)" style="pointer-events: none;"/></g><g><path fill="none" stroke="rgb(0,0,0)" d="M 821.1833333333334,-169.33333333333334 L 831.1833333333334,-169.33333333333334 L 834.1585286458334,-168.95279947916669 L 840.8214192708333,-165.90852864583337 L 847.8483723958334,-159.81998697916669 L 854.5362630208333,-150.68717447916669 L 857.5333333333334,-144.97916666666669 L 859.0757161458334,-142.03002929687503 L 862.9022786458335,-136.70255533854169 L 867.7179036458334,-132.13614908854169 L 873.5225911458335,-128.33081054687503 L 880.3163411458333,-125.28653971354167 L 888.0991536458333,-123.00333658854166 L 896.8710286458332,-121.481201171875 L 906.6319661458333,-120.72013346354166 L 911.8833333333334,-120.625 L 917.1416585286461,-120.76875813802083 L 926.9582600911461,-121.9188232421875 L 935.841463216146,-124.21895345052081 L 943.791267903646,-127.66914876302081 L 950.8076741536458,-132.2694091796875 L 956.890681966146,-138.01973470052081 L 962.0402913411459,-144.92012532552081 L 966.2565022786459,-152.9705810546875 L 968.0145833333335,-157.42708333333331 L 971.4515950520836,-166.05257161458331 L 978.9695638020835,-179.85335286458331 L 984.8023518880211,-187.18501790364581 L 988.6076253255211,-190.63521321614581 L 992.2369222005211,-192.93534342447919 L 995.5964925130211,-194.08540852864581 L 997.1458333333335,-194.22916666666666 L 1010.4458333333334,-194.22916666666666" stroke-opacity="1" stroke-width="0.7" stroke-linecap="butt" stroke-linejoin="miter" stroke-miterlimit="1.45"/><use xlink:href="#ygc154_0" transform="matrix(-0.7 0 0 -0.7 1010.6508585865029 -194.22916666666666)" style="pointer-events: none;"/></g><g><path fill="none" stroke="rgb(0,0,0)" d="M 818.0002832395825,-177.66666666666669 L 831.1833333333334,-177.66666666666669 L 834.1585286458334,-177.87337239583337 L 840.8214192708333,-179.52701822916669 L 847.8483723958334,-182.83430989583337 L 854.5362630208333,-187.79524739583334 L 857.5333333333334,-190.89583333333334 L 860.5528645833335,-193.99641927083334 L 867.4028645833334,-198.95735677083331 L 874.7091145833335,-202.2646484375 L 881.7216145833335,-203.91829427083331 L 884.8833333333334,-204.125 L 898.5802603764353,-204.125" stroke-opacity="1" stroke-width="0.7" stroke-linecap="butt" stroke-linejoin="miter" stroke-miterlimit="1.45"/><use xlink:href="#ygc154_0" transform="matrix(-0.7 0 0 -0.7 898.7852856296047 -204.125)" style="pointer-events: none;"/></g><g><path fill="none" stroke="rgb(0,0,0)" d="M 1024.6458333333335,-183.29166666666666 L 1024.6458333333335,-173.29166666666666 L 1024.3098958333335,-169.46793619791666 L 1022.5462239583335,-163.9950968424479 L 1020.5305989583335,-160.6968790690104 L 1017.8430989583335,-157.8190714518229 L 1014.4837239583335,-155.4817911783854 L 1010.4524739583335,-153.8051554361979 L 1005.7493489583335,-152.9092814127604 L 1003.1458333333335,-152.79166666666666 L 998.1067708333335,-153.04215494791666 L 990.0442708333335,-155.04606119791666 L 985.7610677083335,-157.86405436197916 L 983.7454427083335,-160.36893717447916 L 982.4016927083335,-163.37479654947916 L 981.7298177083335,-166.88163248697916 L 981.6458333333335,-168.82291666666666 L 981.9939778645835,-172.58024088541666 L 984.5066731770835,-178.59195963541666 L 988.8357747395835,-182.59977213541666 L 994.2547200520835,-184.60367838541666 L 997.1458333333335,-184.85416666666666 L 1016.8942968548844,-184.85416666666666" stroke-opacity="1" stroke-width="0.7" stroke-linecap="butt" stroke-linejoin="miter" stroke-miterlimit="1.45"/><use xlink:href="#ygc154_0" transform="matrix(-0.7 0 0 -0.7 1017.0993221080538 -184.85416666666666)" style="pointer-events: none;"/></g><g><path fill="none" stroke="rgb(0,0,0)" d="M 924.8833333333334,-56.66666666666666 L 934.8833333333334,-56.666666666666664 L 936.8071858723958,-56.923136393229164 L 940.9040608723958,-58.974894205729164 L 945.2355061848958,-63.078409830729164 L 949.6843343098958,-69.23368326822916 L 954.1333577473958,-77.44071451822916 L 958.4653889973958,-87.69950358072916 L 962.5632405598958,-100.01005045572916 L 966.3097249348959,-114.37235514322916 L 968.0145833333335,-122.32291666666666 L 972.7418333333335,-145.95916666666665 L 974.9527708333335,-155.80760416666664 L 980.0567708333333,-171.56510416666663 L 984.5111614583334,-179.93627604166664 L 987.7930989583335,-183.87565104166663 L 991.3336614583335,-186.50190104166666 L 995.1403489583336,-187.81502604166667 L 997.1458333333335,-187.97916666666666 L 1013.188023960836,-187.97916666666666" stroke-opacity="1" stroke-width="0.7" stroke-linecap="butt" stroke-linejoin="miter" stroke-miterlimit="1.45"/><use xlink:href="#ygc154_0" transform="matrix(-0.7 0 0 -0.7 1013.3930492140054 -187.97916666666666)" style="pointer-events: none;"/></g><g><path fill="none" stroke="rgb(0,0,0)" d="M 923.208650880639,-201 L 934.8833333333334,-201 L 949.2286458333334,-200.93489583333331 L 966.0145833333335,-200.73958333333331 L 982.8005208333334,-200.54427083333331 L 997.1458333333335,-200.47916666666666 L 1011.3580231972464,-200.47916666666666" stroke-opacity="1" stroke-width="0.7" stroke-linecap="butt" stroke-linejoin="miter" stroke-miterlimit="1.45"/><use xlink:href="#ygc154_0" transform="matrix(-0.7 0 0 -0.7 1011.5630484504159 -200.47916666666666)" style="pointer-events: none;"/></g><g><path fill="none" stroke="rgb(0,0,0)" d="M 1013.0580231972465,-191.10416666666666 L 1002.1458333333335,-191.10416666666666 L 999.5238938802084,-190.94653645833333 L 994.6096868489585,-189.68549479166666 L 990.1268391927085,-187.16341145833334 L 986.0655071614585,-183.38028645833333 L 982.4158470052083,-178.33611979166665 L 979.1680149739585,-172.03091145833332 L 975.0281614583334,-160.20864583333332 L 972.7418333333335,-150.75083333333333 L 968.0145833333335,-128.05208333333331 L 964.6000325520833,-113.27425130208331 L 957.2441731770834,-89.62972005208331 L 951.6124348958333,-77.06856282552081 L 947.9680501302083,-71.15743001302081 L 944.5142903645833,-67.2166748046875 L 941.3390462239583,-65.24629720052083 L 939.8833333333334,-65 L 923.4002832395826,-65" stroke-opacity="1" stroke-width="0.7" stroke-linecap="butt" stroke-linejoin="miter" stroke-miterlimit="1.45"/><use xlink:href="#ygc154_0" transform="matrix(0.7 0 0 0.7 923.1952579864131 -65)" style="pointer-events: none;"/></g><g><path fill="none" stroke="rgb(0,0,0)" d="M 912.3833333333334,-194.75 L 912.3833333333334,-184.75 L 912.0473958333334,-180.92626953125 L 910.2837239583334,-175.45343017578125 L 908.2680989583334,-172.15521240234375 L 905.5805989583334,-169.27740478515625 L 902.2212239583334,-166.94012451171875 L 898.1899739583334,-165.26348876953125 L 893.4868489583334,-164.36761474609375 L 890.8833333333334,-164.25 L 885.8442708333334,-164.5126953125 L 879.5454427083334,-165.891845703125 L 876.1860677083334,-167.468017578125 L 873.4985677083334,-169.569580078125 L 871.4829427083334,-172.196533203125 L 870.1391927083334,-175.348876953125 L 869.4673177083334,-179.026611328125 L 869.3833333333334,-181.0625 L 869.7314778645834,-185.0029296875 L 872.2441731770834,-191.3076171875 L 876.5732747395834,-195.5107421875 L 881.9922200520834,-197.6123046875 L 884.8833333333334,-197.875 L 902.4153604862565,-197.875" stroke-opacity="1" stroke-width="0.7" stroke-linecap="butt" stroke-linejoin="miter" stroke-miterlimit="1.45"/><use xlink:href="#ygc154_0" transform="matrix(-0.7 0 0 -0.7 902.620385739426 -197.875)" style="pointer-events: none;"/></g><g><path fill="none" stroke="rgb(0,0,0)" d="M 708.6833333333334,-142.25 L 708.6833333333334,-132.25 L 708.3473958333334,-128.42626953125 L 706.5837239583334,-122.95343017578125 L 704.5680989583334,-119.65521240234375 L 701.8805989583334,-116.77740478515625 L 698.5212239583334,-114.44012451171875 L 694.4899739583334,-112.76348876953125 L 689.7868489583334,-111.86761474609375 L 687.1833333333334,-111.75 L 682.1442708333334,-112.037109375 L 675.8454427083334,-113.54443359375 L 672.4860677083334,-115.26708984375 L 669.7985677083334,-117.56396484375 L 667.7829427083334,-120.43505859375 L 666.4391927083334,-123.88037109375 L 665.7673177083334,-127.89990234375 L 665.6833333333334,-130.125 L 666.0314778645834,-134.431640625 L 668.5441731770834,-141.322265625 L 672.8732747395834,-145.916015625 L 678.2922200520834,-148.212890625 L 681.1833333333334,-148.5 L 696.1580157860278,-148.5" stroke-opacity="1" stroke-width="0.7" stroke-linecap="butt" stroke-linejoin="miter" stroke-miterlimit="1.45"/><use xlink:href="#ygc154_0" transform="matrix(-0.7 0 0 -0.7 696.3630410391972 -148.5)" style="pointer-events: none;"/></g><ellipse fill="rgb(255,255,255)" fill-opacity="1" stroke="rgb(0,0,0)" stroke-opacity="1" stroke-width="1" stroke-linecap="butt" stroke-linejoin="miter" stroke-miterlimit="1.45" cx="12.5" rx="12.5" cy="-146.125" ry="12.5"/><g transform="translate(0 -158.625)"><text font-family="'Arial'" font-size="12px" font-style="normal" font-weight="normal" text-decoration="none" text-anchor="middle" fill="rgb(0,0,0)" fill-opacity="1" dy="0.9166666666666666em" transform="translate(12.5 5.5)">1</text></g><ellipse fill="rgb(255,255,255)" fill-opacity="1" stroke="rgb(0,0,0)" stroke-opacity="1" stroke-width="1" stroke-linecap="butt" stroke-linejoin="miter" stroke-miterlimit="1.45" cx="113.5" rx="12.5" cy="-102.5" ry="12.5"/><g transform="translate(101 -115)"><text font-family="'Arial'" font-size="12px" font-style="normal" font-weight="normal" text-decoration="none" text-anchor="middle" fill="rgb(0,0,0)" fill-opacity="1" dy="0.9166666666666666em" transform="translate(12.5 5.5)">2</text></g><ellipse fill="rgb(255,255,255)" fill-opacity="1" stroke="rgb(0,0,0)" stroke-opacity="1" stroke-width="1" stroke-linecap="butt" stroke-linejoin="miter" stroke-miterlimit="1.45" cx="113.5" rx="12.5" cy="-183.5" ry="12.5"/><g transform="translate(101 -196)"><text font-family="'Arial'" font-size="12px" font-style="normal" font-weight="normal" text-decoration="none" text-anchor="middle" fill="rgb(0,0,0)" fill-opacity="1" dy="0.9166666666666666em" transform="translate(12.5 5.5)">3</text></g><ellipse fill="rgb(255,255,255)" fill-opacity="1" stroke="rgb(0,0,0)" stroke-opacity="1" stroke-width="1" stroke-linecap="butt" stroke-linejoin="miter" stroke-miterlimit="1.45" cx="214.5" rx="12.5" cy="-146.333" ry="12.5"/><g transform="translate(202 -158.83333333333334)"><text font-family="'Arial'" font-size="12px" font-style="normal" font-weight="normal" text-decoration="none" text-anchor="middle" fill="rgb(0,0,0)" fill-opacity="1" dy="0.9166666666666666em" transform="translate(12.5 5.5)">4</text></g><ellipse fill="rgb(255,255,255)" fill-opacity="1" stroke="rgb(0,0,0)" stroke-opacity="1" stroke-width="1" stroke-linecap="butt" stroke-linejoin="miter" stroke-miterlimit="1.45" cx="299.017" rx="12.5" cy="-146.333" ry="12.5"/><g transform="translate(286.51666666666665 -158.83333333333334)"><text font-family="'Arial'" font-size="12px" font-style="normal" font-weight="normal" text-decoration="none" text-anchor="middle" fill="rgb(0,0,0)" fill-opacity="1" dy="0.9166666666666666em" transform="translate(12.5 5.5)">5</text></g><ellipse fill="rgb(255,255,255)" fill-opacity="1" stroke="rgb(0,0,0)" stroke-opacity="1" stroke-width="1" stroke-linecap="butt" stroke-linejoin="miter" stroke-miterlimit="1.45" cx="399.017" rx="12.5" cy="-241.417" ry="12.5"/><g transform="translate(386.51666666666665 -253.91666666666666)"><text font-family="'Arial'" font-size="12px" font-style="normal" font-weight="normal" text-decoration="none" text-anchor="middle" fill="rgb(0,0,0)" fill-opacity="1" dy="0.9166666666666666em" transform="translate(12.5 5.5)">6</text></g><ellipse fill="rgb(255,255,255)" fill-opacity="1" stroke="rgb(0,0,0)" stroke-opacity="1" stroke-width="1" stroke-linecap="butt" stroke-linejoin="miter" stroke-miterlimit="1.45" cx="607.683" rx="12.5" cy="-107.875" ry="12.5"/><g transform="translate(595.1833333333334 -120.375)"><text font-family="'Arial'" font-size="12px" font-style="normal" font-weight="normal" text-decoration="none" text-anchor="middle" fill="rgb(0,0,0)" fill-opacity="1" dy="0.9166666666666666em" transform="translate(12.5 5.5)">7</text></g><ellipse fill="rgb(255,255,255)" fill-opacity="1" stroke="rgb(0,0,0)" stroke-opacity="1" stroke-width="1" stroke-linecap="butt" stroke-linejoin="miter" stroke-miterlimit="1.45" cx="607.683" rx="12.5" cy="-157.875" ry="12.5"/><g transform="translate(595.1833333333334 -170.375)"><text font-family="'Arial'" font-size="12px" font-style="normal" font-weight="normal" text-decoration="none" text-anchor="middle" fill="rgb(0,0,0)" fill-opacity="1" dy="0.9166666666666666em" transform="translate(12.5 5.5)">8</text></g><ellipse fill="rgb(255,255,255)" fill-opacity="1" stroke="rgb(0,0,0)" stroke-opacity="1" stroke-width="1" stroke-linecap="butt" stroke-linejoin="miter" stroke-miterlimit="1.45" cx="808.683" rx="12.5" cy="-115" ry="12.5"/><g transform="translate(796.1833333333334 -127.5)"><text font-family="'Arial'" font-size="12px" font-style="normal" font-weight="normal" text-decoration="none" text-anchor="middle" fill="rgb(0,0,0)" fill-opacity="1" dy="0.9166666666666666em" transform="translate(12.5 5.5)">9</text></g><ellipse fill="rgb(255,255,255)" fill-opacity="1" stroke="rgb(0,0,0)" stroke-opacity="1" stroke-width="1" stroke-linecap="butt" stroke-linejoin="miter" stroke-miterlimit="1.45" cx="505.892" rx="12.5" cy="-233.083" ry="12.5"/><g transform="translate(493.39166666666665 -245.58333333333334)"><text font-family="'Arial'" font-size="12px" font-style="normal" font-weight="normal" text-decoration="none" text-anchor="middle" fill="rgb(0,0,0)" fill-opacity="1" dy="0.9166666666666666em" transform="translate(12.5 5.5)">17</text></g><ellipse fill="rgb(255,255,255)" fill-opacity="1" stroke="rgb(0,0,0)" stroke-opacity="1" stroke-width="1" stroke-linecap="butt" stroke-linejoin="miter" stroke-miterlimit="1.45" cx="808.683" rx="12.5" cy="-65" ry="12.5"/><g transform="translate(796.1833333333334 -77.5)"><text font-family="'Arial'" font-size="12px" font-style="normal" font-weight="normal" text-decoration="none" text-anchor="middle" fill="rgb(0,0,0)" fill-opacity="1" dy="0.9166666666666666em" transform="translate(12.5 5.5)">10</text></g><ellipse fill="rgb(255,255,255)" fill-opacity="1" stroke="rgb(0,0,0)" stroke-opacity="1" stroke-width="1" stroke-linecap="butt" stroke-linejoin="miter" stroke-miterlimit="1.45" cx="1142.14" rx="12.5" cy="-246.729" ry="12.5"/><g transform="translate(1129.6374603174604 -259.2289682539682)"><text font-family="'Arial'" font-size="12px" font-style="normal" font-weight="normal" text-decoration="none" text-anchor="middle" fill="rgb(0,0,0)" fill-opacity="1" dy="0.9166666666666666em" transform="translate(12.5 5.5)">12</text></g><ellipse fill="rgb(255,255,255)" fill-opacity="1" stroke="rgb(0,0,0)" stroke-opacity="1" stroke-width="1" stroke-linecap="butt" stroke-linejoin="miter" stroke-miterlimit="1.45" cx="808.683" rx="12.5" cy="-169.333" ry="12.5"/><g transform="translate(796.1833333333334 -181.83333333333334)"><text font-family="'Arial'" font-size="12px" font-style="normal" font-weight="normal" text-decoration="none" text-anchor="middle" fill="rgb(0,0,0)" fill-opacity="1" dy="0.9166666666666666em" transform="translate(12.5 5.5)">11</text></g><ellipse fill="rgb(255,255,255)" fill-opacity="1" stroke="rgb(0,0,0)" stroke-opacity="1" stroke-width="1" stroke-linecap="butt" stroke-linejoin="miter" stroke-miterlimit="1.45" cx="1024.65" rx="12.5" cy="-195.792" ry="12.5"/><g transform="translate(1012.1458333333335 -208.29166666666666)"><text font-family="'Arial'" font-size="12px" font-style="normal" font-weight="normal" text-decoration="none" text-anchor="middle" fill="rgb(0,0,0)" fill-opacity="1" dy="0.9166666666666666em" transform="translate(12.5 5.5)">13</text></g><ellipse fill="rgb(255,255,255)" fill-opacity="1" stroke="rgb(0,0,0)" stroke-opacity="1" stroke-width="1" stroke-linecap="butt" stroke-linejoin="miter" stroke-miterlimit="1.45" cx="912.383" rx="12.5" cy="-207.25" ry="12.5"/><g transform="translate(899.8833333333334 -219.75)"><text font-family="'Arial'" font-size="12px" font-style="normal" font-weight="normal" text-decoration="none" text-anchor="middle" fill="rgb(0,0,0)" fill-opacity="1" dy="0.9166666666666666em" transform="translate(12.5 5.5)">14</text></g><ellipse fill="rgb(255,255,255)" fill-opacity="1" stroke="rgb(0,0,0)" stroke-opacity="1" stroke-width="1" stroke-linecap="butt" stroke-linejoin="miter" stroke-miterlimit="1.45" cx="912.383" rx="12.5" cy="-56.6667" ry="12.5"/><g transform="translate(899.8833333333334 -69.16666666666666)"><text font-family="'Arial'" font-size="12px" font-style="normal" font-weight="normal" text-decoration="none" text-anchor="middle" fill="rgb(0,0,0)" fill-opacity="1" dy="0.9166666666666666em" transform="translate(12.5 5.5)">15</text></g><ellipse fill="rgb(255,255,255)" fill-opacity="1" stroke="rgb(0,0,0)" stroke-opacity="1" stroke-width="1" stroke-linecap="butt" stroke-linejoin="miter" stroke-miterlimit="1.45" cx="708.683" rx="12.5" cy="-154.75" ry="12.5"/><g transform="translate(696.1833333333334 -167.25)"><text font-family="'Arial'" font-size="12px" font-style="normal" font-weight="normal" text-decoration="none" text-anchor="middle" fill="rgb(0,0,0)" fill-opacity="1" dy="0.9166666666666666em" transform="translate(12.5 5.5)">16</text></g></g></g><defs><path fill="none" stroke="rgb(0,0,0)" d="M 5,-5 L 0,0 L 5,5" stroke-opacity="1" stroke-width="1" stroke-linecap="butt" stroke-linejoin="miter" stroke-miterlimit="10" id="ygc154_0"/></defs></svg>