<svg xmlns="http://www.w3.org/2000/svg" width="675px" height="217px" viewBox="0 0 675 217" xmlns:xlink="http://www.w3.org/1999/xlink" style="overflow: hidden; display: block; width: 675px; height: 217px;"><rect width="675px" height="217px" fill="white"/><clipPath id="ygc71_20"><rect height="166.25" width="625" x="25" y="25"/></clipPath><g clip-path="url(#ygc71_20)"><g style="pointer-events:visiblePainted" transform="translate(30 216.25)" image-rendering="auto" shape-rendering="auto"><g><path fill="none" stroke="rgb(0,0,0)" d="M 25,-108.125 L 43.3,-108.125" stroke-opacity="1" stroke-width="0.7" stroke-linecap="butt" stroke-linejoin="miter" stroke-miterlimit="1.45"/><use xlink:href="#ygc71_0" transform="matrix(-0.7 0 0 -0.7 43.505025253169414 -108.125)" style="pointer-events: none;"/></g><g><path fill="none" stroke="rgb(0,0,0)" d="M 70,-108.125 L 88.3,-108.125" stroke-opacity="1" stroke-width="0.7" stroke-linecap="butt" stroke-linejoin="miter" stroke-miterlimit="1.45"/><use xlink:href="#ygc71_1" transform="matrix(-0.7 0 0 -0.7 88.50502525316942 -108.125)" style="pointer-events: none;"/></g><g><path fill="none" stroke="rgb(0,0,0)" d="M 111.81694990624914,-99.79166666666667 L 130,-99.79166666666667 L 130,-95.625 L 144.97468245269454,-95.625" stroke-opacity="1" stroke-width="0.7" stroke-linecap="butt" stroke-linejoin="miter" stroke-miterlimit="1.45"/><use xlink:href="#ygc71_2" transform="matrix(-0.7 0 0 -0.7 145.17970770586393 -95.625)" style="pointer-events: none;"/></g><g><path fill="none" stroke="rgb(0,0,0)" d="M 146.67468245269453,-108.125 L 116.7,-108.125" stroke-opacity="1" stroke-width="0.7" stroke-linecap="butt" stroke-linejoin="miter" stroke-miterlimit="1.45"/><use xlink:href="#ygc71_3" transform="matrix(0.7 0 0 0.7 116.49497474683058 -108.125)" style="pointer-events: none;"/></g><g><path fill="none" stroke="rgb(0,0,0)" d="M 111.81694990624914,-116.45833333333333 L 130,-116.45833333333333 L 130,-151.875 L 143.3,-151.875" stroke-opacity="1" stroke-width="0.7" stroke-linecap="butt" stroke-linejoin="miter" stroke-miterlimit="1.45"/><use xlink:href="#ygc71_4" transform="matrix(-0.7 0 0 -0.7 143.5050252531694 -151.875)" style="pointer-events: none;"/></g><g><path fill="none" stroke="rgb(0,0,0)" d="M 170,-151.875 L 188.3,-151.875" stroke-opacity="1" stroke-width="0.7" stroke-linecap="butt" stroke-linejoin="miter" stroke-miterlimit="1.45"/><use xlink:href="#ygc71_5" transform="matrix(-0.7 0 0 -0.7 188.5050252531694 -151.875)" style="pointer-events: none;"/></g><g><path fill="none" stroke="rgb(0,0,0)" d="M 215,-151.875 L 233.3,-151.875" stroke-opacity="1" stroke-width="0.7" stroke-linecap="butt" stroke-linejoin="miter" stroke-miterlimit="1.45"/><use xlink:href="#ygc71_6" transform="matrix(-0.7 0 0 -0.7 233.5050252531694 -151.875)" style="pointer-events: none;"/></g><g><path fill="none" stroke="rgb(0,0,0)" d="M 258.3253175473055,-145.625 L 275,-145.625 L 275,-123.75 L 288.3,-123.75" stroke-opacity="1" stroke-width="0.7" stroke-linecap="butt" stroke-linejoin="miter" stroke-miterlimit="1.45"/><use xlink:href="#ygc71_7" transform="matrix(-0.7 0 0 -0.7 288.50502525316944 -123.75)" style="pointer-events: none;"/></g><g><path fill="none" stroke="rgb(0,0,0)" d="M 391.6746824526945,-180 L 275,-180 L 275,-158.125 L 260.02531754730546,-158.125" stroke-opacity="1" stroke-width="0.7" stroke-linecap="butt" stroke-linejoin="miter" stroke-miterlimit="1.45"/><use xlink:href="#ygc71_8" transform="matrix(0.7 0 0 0.7 259.82029229413604 -158.125)" style="pointer-events: none;"/></g><g><path fill="none" stroke="rgb(0,0,0)" d="M 315,-123.75 L 333.3,-123.75" stroke-opacity="1" stroke-width="0.7" stroke-linecap="butt" stroke-linejoin="miter" stroke-miterlimit="1.45"/><use xlink:href="#ygc71_9" transform="matrix(-0.7 0 0 -0.7 333.50502525316944 -123.75)" style="pointer-events: none;"/></g><g><path fill="none" stroke="rgb(0,0,0)" d="M 356.81694990624914,-132.08333333333334 L 375,-132.08333333333334 L 375,-167.5 L 389.97468245269454,-167.5" stroke-opacity="1" stroke-width="0.7" stroke-linecap="butt" stroke-linejoin="miter" stroke-miterlimit="1.45"/><use xlink:href="#ygc71_10" transform="matrix(-0.7 0 0 -0.7 390.17970770586396 -167.5)" style="pointer-events: none;"/></g><g><path fill="none" stroke="rgb(0,0,0)" d="M 360,-123.75 L 388.3,-123.75" stroke-opacity="1" stroke-width="0.7" stroke-linecap="butt" stroke-linejoin="miter" stroke-miterlimit="1.45"/><use xlink:href="#ygc71_11" transform="matrix(-0.7 0 0 -0.7 388.50502525316944 -123.75)" style="pointer-events: none;"/></g><g><path fill="none" stroke="rgb(0,0,0)" d="M 591.6746824526945,-36.25 L 375,-36.25 L 375,-115.41666666666667 L 358.5169499062491,-115.41666666666667" stroke-opacity="1" stroke-width="0.7" stroke-linecap="butt" stroke-linejoin="miter" stroke-miterlimit="1.45"/><use xlink:href="#ygc71_12" transform="matrix(0.7 0 0 0.7 358.3119246530797 -115.41666666666667)" style="pointer-events: none;"/></g><g><path fill="none" stroke="rgb(0,0,0)" d="M 415,-123.75 L 433.3,-123.75" stroke-opacity="1" stroke-width="0.7" stroke-linecap="butt" stroke-linejoin="miter" stroke-miterlimit="1.45"/><use xlink:href="#ygc71_13" transform="matrix(-0.7 0 0 -0.7 433.50502525316944 -123.75)" style="pointer-events: none;"/></g><g><path fill="none" stroke="rgb(0,0,0)" d="M 460,-123.75 L 478.3,-123.75" stroke-opacity="1" stroke-width="0.7" stroke-linecap="butt" stroke-linejoin="miter" stroke-miterlimit="1.45"/><use xlink:href="#ygc71_14" transform="matrix(-0.7 0 0 -0.7 478.50502525316944 -123.75)" style="pointer-events: none;"/></g><g><path fill="none" stroke="rgb(0,0,0)" d="M 505,-123.75 L 533.3,-123.75" stroke-opacity="1" stroke-width="0.7" stroke-linecap="butt" stroke-linejoin="miter" stroke-miterlimit="1.45"/><use xlink:href="#ygc71_15" transform="matrix(-0.7 0 0 -0.7 533.5050252531694 -123.75)" style="pointer-events: none;"/></g><g><path fill="none" stroke="rgb(0,0,0)" d="M 591.6746824526945,-161.25 L 520,-161.25 L 520,-132.08333333333334 L 503.5169499062491,-132.08333333333334" stroke-opacity="1" stroke-width="0.7" stroke-linecap="butt" stroke-linejoin="miter" stroke-miterlimit="1.45"/><use xlink:href="#ygc71_16" transform="matrix(0.7 0 0 0.7 503.3119246530797 -132.08333333333334)" style="pointer-events: none;"/></g><g><path fill="none" stroke="rgb(0,0,0)" d="M 501.81694990624914,-115.41666666666667 L 520,-115.41666666666667 L 520,-73.75 L 533.3,-73.75" stroke-opacity="1" stroke-width="0.7" stroke-linecap="butt" stroke-linejoin="miter" stroke-miterlimit="1.45"/><use xlink:href="#ygc71_17" transform="matrix(-0.7 0 0 -0.7 533.5050252531694 -73.75)" style="pointer-events: none;"/></g><g><path fill="none" stroke="rgb(0,0,0)" d="M 560,-123.75 L 575,-123.75 L 575,-148.75 L 589.9746824526944,-148.75" stroke-opacity="1" stroke-width="0.7" stroke-linecap="butt" stroke-linejoin="miter" stroke-miterlimit="1.45"/><use xlink:href="#ygc71_18" transform="matrix(-0.7 0 0 -0.7 590.1797077058638 -148.75)" style="pointer-events: none;"/></g><g><path fill="none" stroke="rgb(0,0,0)" d="M 560,-73.75 L 575,-73.75 L 575,-48.75 L 589.9746824526944,-48.75" stroke-opacity="1" stroke-width="0.7" stroke-linecap="butt" stroke-linejoin="miter" stroke-miterlimit="1.45"/><use xlink:href="#ygc71_19" transform="matrix(-0.7 0 0 -0.7 590.1797077058638 -48.75)" style="pointer-events: none;"/></g><ellipse fill="rgb(255,255,255)" fill-opacity="1" stroke="rgb(0,0,0)" stroke-opacity="1" stroke-width="1" stroke-linecap="butt" stroke-linejoin="miter" stroke-miterlimit="1.45" cx="12.5" rx="12.5" cy="-108.125" ry="12.5"/><g transform="translate(0 -120.625)"><text font-family="'Arial'" font-size="12px" font-style="normal" font-weight="normal" text-decoration="none" text-anchor="middle" fill="rgb(0,0,0)" fill-opacity="1" dy="0.9166666666666666em" transform="translate(12.5 5.5)">1</text></g><ellipse fill="rgb(255,255,255)" fill-opacity="1" stroke="rgb(0,0,0)" stroke-opacity="1" stroke-width="1" stroke-linecap="butt" stroke-linejoin="miter" stroke-miterlimit="1.45" cx="57.5" rx="12.5" cy="-108.125" ry="12.5"/><g transform="translate(45 -120.625)"><text font-family="'Arial'" font-size="12px" font-style="normal" font-weight="normal" text-decoration="none" text-anchor="middle" fill="rgb(0,0,0)" fill-opacity="1" dy="0.9166666666666666em" transform="translate(12.5 5.5)">2</text></g><ellipse fill="rgb(255,255,255)" fill-opacity="1" stroke="rgb(0,0,0)" stroke-opacity="1" stroke-width="1" stroke-linecap="butt" stroke-linejoin="miter" stroke-miterlimit="1.45" cx="102.5" rx="12.5" cy="-108.125" ry="12.5"/><g transform="translate(90 -120.625)"><text font-family="'Arial'" font-size="12px" font-style="normal" font-weight="normal" text-decoration="none" text-anchor="middle" fill="rgb(0,0,0)" fill-opacity="1" dy="0.9166666666666666em" transform="translate(12.5 5.5)">3</text></g><ellipse fill="rgb(255,255,255)" fill-opacity="1" stroke="rgb(0,0,0)" stroke-opacity="1" stroke-width="1" stroke-linecap="butt" stroke-linejoin="miter" stroke-miterlimit="1.45" cx="157.5" rx="12.5" cy="-101.875" ry="12.5"/><g transform="translate(145 -114.375)"><text font-family="'Arial'" font-size="12px" font-style="normal" font-weight="normal" text-decoration="none" text-anchor="middle" fill="rgb(0,0,0)" fill-opacity="1" dy="0.9166666666666666em" transform="translate(12.5 5.5)">4</text></g><ellipse fill="rgb(255,255,255)" fill-opacity="1" stroke="rgb(0,0,0)" stroke-opacity="1" stroke-width="1" stroke-linecap="butt" stroke-linejoin="miter" stroke-miterlimit="1.45" cx="157.5" rx="12.5" cy="-151.875" ry="12.5"/><g transform="translate(145 -164.375)"><text font-family="'Arial'" font-size="12px" font-style="normal" font-weight="normal" text-decoration="none" text-anchor="middle" fill="rgb(0,0,0)" fill-opacity="1" dy="0.9166666666666666em" transform="translate(12.5 5.5)">5</text></g><ellipse fill="rgb(255,255,255)" fill-opacity="1" stroke="rgb(0,0,0)" stroke-opacity="1" stroke-width="1" stroke-linecap="butt" stroke-linejoin="miter" stroke-miterlimit="1.45" cx="202.5" rx="12.5" cy="-151.875" ry="12.5"/><g transform="translate(190 -164.375)"><text font-family="'Arial'" font-size="12px" font-style="normal" font-weight="normal" text-decoration="none" text-anchor="middle" fill="rgb(0,0,0)" fill-opacity="1" dy="0.9166666666666666em" transform="translate(12.5 5.5)">6</text></g><ellipse fill="rgb(255,255,255)" fill-opacity="1" stroke="rgb(0,0,0)" stroke-opacity="1" stroke-width="1" stroke-linecap="butt" stroke-linejoin="miter" stroke-miterlimit="1.45" cx="247.5" rx="12.5" cy="-151.875" ry="12.5"/><g transform="translate(235 -164.375)"><text font-family="'Arial'" font-size="12px" font-style="normal" font-weight="normal" text-decoration="none" text-anchor="middle" fill="rgb(0,0,0)" fill-opacity="1" dy="0.9166666666666666em" transform="translate(12.5 5.5)">7</text></g><ellipse fill="rgb(255,255,255)" fill-opacity="1" stroke="rgb(0,0,0)" stroke-opacity="1" stroke-width="1" stroke-linecap="butt" stroke-linejoin="miter" stroke-miterlimit="1.45" cx="302.5" rx="12.5" cy="-123.75" ry="12.5"/><g transform="translate(290 -136.25)"><text font-family="'Arial'" font-size="12px" font-style="normal" font-weight="normal" text-decoration="none" text-anchor="middle" fill="rgb(0,0,0)" fill-opacity="1" dy="0.9166666666666666em" transform="translate(12.5 5.5)">8</text></g><ellipse fill="rgb(255,255,255)" fill-opacity="1" stroke="rgb(0,0,0)" stroke-opacity="1" stroke-width="1" stroke-linecap="butt" stroke-linejoin="miter" stroke-miterlimit="1.45" cx="347.5" rx="12.5" cy="-123.75" ry="12.5"/><g transform="translate(335 -136.25)"><text font-family="'Arial'" font-size="12px" font-style="normal" font-weight="normal" text-decoration="none" text-anchor="middle" fill="rgb(0,0,0)" fill-opacity="1" dy="0.9166666666666666em" transform="translate(12.5 5.5)">9</text></g><ellipse fill="rgb(255,255,255)" fill-opacity="1" stroke="rgb(0,0,0)" stroke-opacity="1" stroke-width="1" stroke-linecap="butt" stroke-linejoin="miter" stroke-miterlimit="1.45" cx="402.5" rx="12.5" cy="-173.75" ry="12.5"/><g transform="translate(390 -186.25)"><text font-family="'Arial'" font-size="12px" font-style="normal" font-weight="normal" text-decoration="none" text-anchor="middle" fill="rgb(0,0,0)" fill-opacity="1" dy="0.9166666666666666em" transform="translate(12.5 5.5)">17</text></g><ellipse fill="rgb(255,255,255)" fill-opacity="1" stroke="rgb(0,0,0)" stroke-opacity="1" stroke-width="1" stroke-linecap="butt" stroke-linejoin="miter" stroke-miterlimit="1.45" cx="402.5" rx="12.5" cy="-123.75" ry="12.5"/><g transform="translate(390 -136.25)"><text font-family="'Arial'" font-size="12px" font-style="normal" font-weight="normal" text-decoration="none" text-anchor="middle" fill="rgb(0,0,0)" fill-opacity="1" dy="0.9166666666666666em" transform="translate(12.5 5.5)">10</text></g><ellipse fill="rgb(255,255,255)" fill-opacity="1" stroke="rgb(0,0,0)" stroke-opacity="1" stroke-width="1" stroke-linecap="butt" stroke-linejoin="miter" stroke-miterlimit="1.45" cx="492.5" rx="12.5" cy="-123.75" ry="12.5"/><g transform="translate(480 -136.25)"><text font-family="'Arial'" font-size="12px" font-style="normal" font-weight="normal" text-decoration="none" text-anchor="middle" fill="rgb(0,0,0)" fill-opacity="1" dy="0.9166666666666666em" transform="translate(12.5 5.5)">12</text></g><ellipse fill="rgb(255,255,255)" fill-opacity="1" stroke="rgb(0,0,0)" stroke-opacity="1" stroke-width="1" stroke-linecap="butt" stroke-linejoin="miter" stroke-miterlimit="1.45" cx="447.5" rx="12.5" cy="-123.75" ry="12.5"/><g transform="translate(435 -136.25)"><text font-family="'Arial'" font-size="12px" font-style="normal" font-weight="normal" text-decoration="none" text-anchor="middle" fill="rgb(0,0,0)" fill-opacity="1" dy="0.9166666666666666em" transform="translate(12.5 5.5)">11</text></g><ellipse fill="rgb(255,255,255)" fill-opacity="1" stroke="rgb(0,0,0)" stroke-opacity="1" stroke-width="1" stroke-linecap="butt" stroke-linejoin="miter" stroke-miterlimit="1.45" cx="547.5" rx="12.5" cy="-123.75" ry="12.5"/><g transform="translate(535 -136.25)"><text font-family="'Arial'" font-size="12px" font-style="normal" font-weight="normal" text-decoration="none" text-anchor="middle" fill="rgb(0,0,0)" fill-opacity="1" dy="0.9166666666666666em" transform="translate(12.5 5.5)">13</text></g><ellipse fill="rgb(255,255,255)" fill-opacity="1" stroke="rgb(0,0,0)" stroke-opacity="1" stroke-width="1" stroke-linecap="butt" stroke-linejoin="miter" stroke-miterlimit="1.45" cx="602.5" rx="12.5" cy="-155" ry="12.5"/><g transform="translate(590 -167.5)"><text font-family="'Arial'" font-size="12px" font-style="normal" font-weight="normal" text-decoration="none" text-anchor="middle" fill="rgb(0,0,0)" fill-opacity="1" dy="0.9166666666666666em" transform="translate(12.5 5.5)">14</text></g><ellipse fill="rgb(255,255,255)" fill-opacity="1" stroke="rgb(0,0,0)" stroke-opacity="1" stroke-width="1" stroke-linecap="butt" stroke-linejoin="miter" stroke-miterlimit="1.45" cx="547.5" rx="12.5" cy="-73.75" ry="12.5"/><g transform="translate(535 -86.25)"><text font-family="'Arial'" font-size="12px" font-style="normal" font-weight="normal" text-decoration="none" text-anchor="middle" fill="rgb(0,0,0)" fill-opacity="1" dy="0.9166666666666666em" transform="translate(12.5 5.5)">15</text></g><ellipse fill="rgb(255,255,255)" fill-opacity="1" stroke="rgb(0,0,0)" stroke-opacity="1" stroke-width="1" stroke-linecap="butt" stroke-linejoin="miter" stroke-miterlimit="1.45" cx="602.5" rx="12.5" cy="-42.5" ry="12.5"/><g transform="translate(590 -55)"><text font-family="'Arial'" font-size="12px" font-style="normal" font-weight="normal" text-decoration="none" text-anchor="middle" fill="rgb(0,0,0)" fill-opacity="1" dy="0.9166666666666666em" transform="translate(12.5 5.5)">16</text></g></g></g><defs><path fill="none" stroke="rgb(0,0,0)" d="M 5,-5 L 0,0 L 5,5" stroke-opacity="1" stroke-width="1" stroke-linecap="butt" stroke-linejoin="miter" stroke-miterlimit="10" id="ygc71_0"/><path fill="none" stroke="rgb(0,0,0)" d="M 5,-5 L 0,0 L 5,5" stroke-opacity="1" stroke-width="1" stroke-linecap="butt" stroke-linejoin="miter" stroke-miterlimit="10" id="ygc71_1"/><path fill="none" stroke="rgb(0,0,0)" d="M 5,-5 L 0,0 L 5,5" stroke-opacity="1" stroke-width="1" stroke-linecap="butt" stroke-linejoin="miter" stroke-miterlimit="10" id="ygc71_2"/><path fill="none" stroke="rgb(0,0,0)" d="M 5,-5 L 0,0 L 5,5" stroke-opacity="1" stroke-width="1" stroke-linecap="butt" stroke-linejoin="miter" stroke-miterlimit="10" id="ygc71_3"/><path fill="none" stroke="rgb(0,0,0)" d="M 5,-5 L 0,0 L 5,5" stroke-opacity="1" stroke-width="1" stroke-linecap="butt" stroke-linejoin="miter" stroke-miterlimit="10" id="ygc71_4"/><path fill="none" stroke="rgb(0,0,0)" d="M 5,-5 L 0,0 L 5,5" stroke-opacity="1" stroke-width="1" stroke-linecap="butt" stroke-linejoin="miter" stroke-miterlimit="10" id="ygc71_5"/><path fill="none" stroke="rgb(0,0,0)" d="M 5,-5 L 0,0 L 5,5" stroke-opacity="1" stroke-width="1" stroke-linecap="butt" stroke-linejoin="miter" stroke-miterlimit="10" id="ygc71_6"/><path fill="none" stroke="rgb(0,0,0)" d="M 5,-5 L 0,0 L 5,5" stroke-opacity="1" stroke-width="1" stroke-linecap="butt" stroke-linejoin="miter" stroke-miterlimit="10" id="ygc71_7"/><path fill="none" stroke="rgb(0,0,0)" d="M 5,-5 L 0,0 L 5,5" stroke-opacity="1" stroke-width="1" stroke-linecap="butt" stroke-linejoin="miter" stroke-miterlimit="10" id="ygc71_8"/><path fill="none" stroke="rgb(0,0,0)" d="M 5,-5 L 0,0 L 5,5" stroke-opacity="1" stroke-width="1" stroke-linecap="butt" stroke-linejoin="miter" stroke-miterlimit="10" id="ygc71_9"/><path fill="none" stroke="rgb(0,0,0)" d="M 5,-5 L 0,0 L 5,5" stroke-opacity="1" stroke-width="1" stroke-linecap="butt" stroke-linejoin="miter" stroke-miterlimit="10" id="ygc71_10"/><path fill="none" stroke="rgb(0,0,0)" d="M 5,-5 L 0,0 L 5,5" stroke-opacity="1" stroke-width="1" stroke-linecap="butt" stroke-linejoin="miter" stroke-miterlimit="10" id="ygc71_11"/><path fill="none" stroke="rgb(0,0,0)" d="M 5,-5 L 0,0 L 5,5" stroke-opacity="1" stroke-width="1" stroke-linecap="butt" stroke-linejoin="miter" stroke-miterlimit="10" id="ygc71_12"/><path fill="none" stroke="rgb(0,0,0)" d="M 5,-5 L 0,0 L 5,5" stroke-opacity="1" stroke-width="1" stroke-linecap="butt" stroke-linejoin="miter" stroke-miterlimit="10" id="ygc71_13"/><path fill="none" stroke="rgb(0,0,0)" d="M 5,-5 L 0,0 L 5,5" stroke-opacity="1" stroke-width="1" stroke-linecap="butt" stroke-linejoin="miter" stroke-miterlimit="10" id="ygc71_14"/><path fill="none" stroke="rgb(0,0,0)" d="M 5,-5 L 0,0 L 5,5" stroke-opacity="1" stroke-width="1" stroke-linecap="butt" stroke-linejoin="miter" stroke-miterlimit="10" id="ygc71_15"/><path fill="none" stroke="rgb(0,0,0)" d="M 5,-5 L 0,0 L 5,5" stroke-opacity="1" stroke-width="1" stroke-linecap="butt" stroke-linejoin="miter" stroke-miterlimit="10" id="ygc71_16"/><path fill="none" stroke="rgb(0,0,0)" d="M 5,-5 L 0,0 L 5,5" stroke-opacity="1" stroke-width="1" stroke-linecap="butt" stroke-linejoin="miter" stroke-miterlimit="10" id="ygc71_17"/><path fill="none" stroke="rgb(0,0,0)" d="M 5,-5 L 0,0 L 5,5" stroke-opacity="1" stroke-width="1" stroke-linecap="butt" stroke-linejoin="miter" stroke-miterlimit="10" id="ygc71_18"/><path fill="none" stroke="rgb(0,0,0)" d="M 5,-5 L 0,0 L 5,5" stroke-opacity="1" stroke-width="1" stroke-linecap="butt" stroke-linejoin="miter" stroke-miterlimit="10" id="ygc71_19"/></defs></svg>